# xmcd
#
# Track frame offsets:
# 183
# 19328
# 39220
# 61223
# 81778
# 103070
# 133930
# 152253
# 167585
# 186530
# 205145
# 223643
# 241595
#
# Disc length: 3628 seconds
#
#
# Revision: 3
# Processed by: cddbd v1.5.2PL0 Copyright (c) Steve Scherf et al.
# Submitted via: FreeRIP 2.945 
#
DISCID=a80e2a0d
DTITLE=Chris Rea - New Light Through Old Windows
DYEAR=1988
DGENRE=Rock
TTITLE0=Let's Dance
TTITLE1=Working On It
TTITLE2=Ace of Hearts
TTITLE3=Josephine
TTITLE4=Candles
TTITLE5=On The Beach
TTITLE6=Fool
TTITLE7=I Can Hear Your Heartbeat
TTITLE8=Shamrock Diaries
TTITLE9=Stainsby Girls
TTITLE10=Windy Town
TTITLE11=Driving Home For Christmas
TTITLE12=Steel River
EXTD=
EXTT0=
EXTT1=
EXTT2=
EXTT3=
EXTT4=
EXTT5=
EXTT6=
EXTT7=
EXTT8=
EXTT9=
EXTT10=
EXTT11=
EXTT12=
PLAYORDER=
